<svg width="187" height="187" viewBox="0 0 187 187" fill="none" xmlns="http://www.w3.org/2000/svg">
<path d="M93.4548 187C144.701 187 187 144.681 187 93.5C187 42.3191 144.611 0 93.3644 0C42.2083 0 0 42.3191 0 93.5C0 144.681 42.2987 187 93.4548 187ZM93.4548 168.372C51.9696 168.372 18.7994 135.005 18.7994 93.5C18.7994 51.9947 51.9696 18.7181 93.3644 18.7181C134.85 18.7181 168.201 51.9947 168.291 93.5C168.381 135.005 134.94 168.372 93.4548 168.372ZM47.9024 104.894H93.3644C97.522 104.894 100.685 101.729 100.685 97.6596V38.5213C100.685 34.4521 97.522 31.2872 93.3644 31.2872C89.3876 31.2872 86.2243 34.4521 86.2243 38.5213V90.4255H47.9024C43.8352 90.4255 40.6718 93.5904 40.6718 97.6596C40.6718 101.729 43.8352 104.894 47.9024 104.894Z" fill="#FB4D4D"/>
</svg>
